<?xml version="1.0" encoding="utf-8"?>
<!-- Generator: Adobe Illustrator 15.1.0, SVG Export Plug-In . SVG Version: 6.00 Build 0)  -->
<!DOCTYPE svg PUBLIC "-//W3C//DTD SVG 1.1//EN" "http://www.w3.org/Graphics/SVG/1.1/DTD/svg11.dtd">
<svg version="1.1" xmlns="http://www.w3.org/2000/svg" xmlns:xlink="http://www.w3.org/1999/xlink" x="0px" y="0px" width="600px"
	 height="600px" viewBox="99.5 0 600 600" enable-background="new 99.5 0 600 600" xml:space="preserve">
<g id="head" inkscape:version="0.48.4 r9939" inkscape:export-ydpi="45" inkscape:export-xdpi="45" sodipodi:docname="Robot Head.svg" xmlns:inkscape="http://www.inkscape.org/namespaces/inkscape" xmlns:rdf="http://www.w3.org/1999/02/22-rdf-syntax-ns#" xmlns:cc="http://creativecommons.org/ns#" xmlns:dc="http://purl.org/dc/elements/1.1/" xmlns:sodipodi="http://sodipodi.sourceforge.net/DTD/sodipodi-0.dtd" xmlns:svg="http://www.w3.org/2000/svg" xmlns:ns1="http://sozi.baierouge.fr" inkscape:export-filename="/home/qubodup/Robot Head.png" display="none">
	<rect x="99.5" display="inline" fill="none" width="600" height="600"/>
	
		<sodipodi:namedview  inkscape:document-units="px" inkscape:pageopacity="0.0" inkscape:window-width="1481" inkscape:current-layer="layer1" inkscape:window-x="0" inkscape:window-height="1181" inkscape:window-y="0" inkscape:pageshadow="2" inkscape:cy="26.313034" inkscape:cx="0.38954017" borderopacity="1.0" showgrid="false" inkscape:zoom="1" pagecolor="#ffffff" bordercolor="#666666" id="base" inkscape:window-maximized="0">
		</sodipodi:namedview>
	<g id="g3295_1_" transform="matrix(.31048 0 0 .31048 -120.09 904.36)" display="inline">
		
			<rect id="rect4181_1_" x="2458.637" y="-2651.207" fill="#A4A4A4" stroke="#484848" stroke-width="2.8068" stroke-linecap="round" stroke-linejoin="round" width="169.455" height="372.14"/>
		<rect id="rect4274_1_" x="2410.073" y="-2637.988" fill="#E3E3E3" width="205.576" height="85.52"/>
		<rect id="rect4276_1_" x="2409.419" y="-2377.739" opacity="0.35" enable-background="new    " width="205.576" height="85.522"/>
		
			<rect id="rect4129_1_" x="2458.637" y="-2651.207" fill="none" stroke="#484848" stroke-width="2.8068" stroke-linecap="round" stroke-linejoin="round" width="169.455" height="372.14"/>
	</g>
	<g id="g3300_1_" transform="matrix(.31048 0 0 .31048 -120.09 906.32)" display="inline">
		
			<rect id="rect4179_1_" x="721.919" y="-2598.337" fill="#A4A4A4" stroke="#484848" stroke-width="2.8068" stroke-linecap="round" stroke-linejoin="round" width="169.453" height="372.141"/>
		<rect id="rect4270_1_" x="732.325" y="-2586.336" fill="#E3E3E3" width="205.574" height="85.52"/>
		<rect id="rect4272_1_" x="735.605" y="-2323.18" opacity="0.35" enable-background="new    " width="205.576" height="85.52"/>
		
			<rect id="rect3359_1_" x="721.919" y="-2598.337" fill="none" stroke="#484848" stroke-width="2.8068" stroke-linecap="round" stroke-linejoin="round" width="169.453" height="372.141"/>
	</g>
	<g id="g3290_1_" transform="matrix(.31048 0 0 .55808 -120.09 836.21)" display="inline">
		
			<rect id="rect4166_1_" x="878.575" y="-1488.442" fill="#A4A4A4" stroke="#484848" stroke-width="2.8068" stroke-linecap="round" stroke-linejoin="round" width="1587.281" height="816.413"/>
		
			<path id="rect4187_1_" sodipodi:nodetypes="ccccc" inkscape:connector-curvature="0" opacity="0.3285" enable-background="new    " d="
			M2235.699-1478.599h212.653v867.216h-212.653C2297.137-900.452,2333.698-1189.53,2235.699-1478.599z"/>
		<path id="path4185_1_" sodipodi:nodetypes="ccccc" inkscape:connector-curvature="0" fill="#E5E5E5" d="M904.637-1046.974
			l13.291-402.038l694.434-9.967l-634.63,59.808l-73.099,352.2L904.637-1046.974z"/>
	</g>
	<g id="g3305_1_" transform="matrix(.39708 0 0 .39708 -161.66 883.41)" display="inline">
		
			<path id="path4171_1_" sodipodi:cx="342.69424" sodipodi:cy="256.10944" sodipodi:type="arc" sodipodi:ry="11.616755" sodipodi:rx="10.859139" fill="#FFFFFF" stroke="#484848" stroke-width="2.8657" d="
			M1334.865-1855.548c0,102.21-82.858,185.07-185.068,185.07c-102.211,0-185.068-82.857-185.068-185.07
			c0-102.21,82.858-185.069,185.068-185.069C1252.008-2040.617,1334.865-1957.76,1334.865-1855.548z"/>
		
			<path id="path4175_1_" sodipodi:cx="343.07306" sodipodi:cy="252.06883" sodipodi:type="arc" sodipodi:ry="5.0507627" sodipodi:rx="6.1871843" fill="#292929" d="
			M1236.935-1855.527c0.391,48.067-38.259,87.349-86.327,87.739c-48.067,0.39-87.349-38.259-87.739-86.327
			c-0.005-0.47-0.005-0.941,0-1.412c-0.39-48.067,38.26-87.35,86.327-87.74c48.067-0.39,87.35,38.26,87.739,86.327
			C1236.939-1856.469,1236.939-1855.998,1236.935-1855.527z"/>
	</g>
	<g id="g4150_1_" transform="matrix(.39708 0 0 .39708 -141.5 883.08)" display="inline">
		
			<path id="path4152_1_" sodipodi:cx="342.69424" sodipodi:cy="256.10944" sodipodi:type="arc" sodipodi:ry="11.616755" sodipodi:rx="10.859139" fill="#FFFFFF" stroke="#484848" stroke-width="2.8657" d="
			M1760.07-1862.507c0,102.21-82.861,185.069-185.069,185.069c-102.211,0-185.067-82.857-185.067-185.069
			c0-102.21,82.858-185.07,185.067-185.07C1677.212-2047.578,1760.07-1964.721,1760.07-1862.507z"/>
		
			<path id="path4154_1_" sodipodi:cx="343.07306" sodipodi:cy="252.06883" sodipodi:type="arc" sodipodi:ry="5.0507627" sodipodi:rx="6.1871843" fill="#292929" d="
			M1662.139-1862.488c0,48.069-38.966,87.037-87.037,87.037c-48.068,0-87.037-38.967-87.037-87.036
			c0-48.069,38.969-87.037,87.037-87.037c48.071,0,87.037,38.967,87.037,87.037V-1862.488z"/>
	</g>
	<g id="g3285_1_" transform="matrix(.31048 0 0 .72239 -120.09 783.39)" display="inline">
		
			<path id="rect4168_1_" sodipodi:nodetypes="ccccccccc" inkscape:connector-curvature="0" fill="#A4A4A4" stroke="#484848" stroke-width="2.8068" stroke-linecap="round" stroke-linejoin="round" d="
			M808.731-706.898h217.125l203.278,215.596h868.49l230.962-215.596h217.125v444.459h-1737v-444.459H808.731z"/>
		
			<path id="rect4189_1_" sodipodi:nodetypes="cccccc" inkscape:connector-curvature="0" opacity="0.3285" enable-background="new    " d="
			M2525.761-698.085l-0.075,427.124h-318.974l5.432-307.546l128.606-119.747L2525.761-698.085z"/>
		<path id="path4192_1_" sodipodi:nodetypes="cccccc" inkscape:connector-curvature="0" fill="#E5E5E5" d="M835.168-604.711
			l1.261,318.685l580.65,0.522l-528.103-49.998l-53.807-269.211v-0.001L835.168-604.711z"/>
	</g>
</g>
<g id="top" inkscape:version="0.48.4 r9939" inkscape:export-ydpi="45" inkscape:export-xdpi="45" sodipodi:docname="Robot Head.svg" xmlns:inkscape="http://www.inkscape.org/namespaces/inkscape" xmlns:rdf="http://www.w3.org/1999/02/22-rdf-syntax-ns#" xmlns:cc="http://creativecommons.org/ns#" xmlns:dc="http://purl.org/dc/elements/1.1/" xmlns:sodipodi="http://sodipodi.sourceforge.net/DTD/sodipodi-0.dtd" xmlns:svg="http://www.w3.org/2000/svg" xmlns:ns1="http://sozi.baierouge.fr" inkscape:export-filename="/home/qubodup/Robot Head.png" display="none">
	
		<sodipodi:namedview  inkscape:document-units="px" inkscape:pageopacity="0.0" inkscape:window-width="1481" inkscape:current-layer="layer1" inkscape:window-x="0" inkscape:window-height="1181" inkscape:window-y="0" inkscape:pageshadow="2" inkscape:cy="26.313034" inkscape:cx="0.38954017" borderopacity="1.0" showgrid="false" inkscape:zoom="1" pagecolor="#ffffff" bordercolor="#666666" id="base" inkscape:window-maximized="0">
		</sodipodi:namedview>
	<g display="inline">
		<rect x="99.5" y="0" fill="none" width="600" height="600"/>
		<g id="g3295_2_" transform="matrix(.31048 0 0 .31048 -120.09 904.36)">
			
				<rect id="rect4181_2_" x="2458.637" y="-2651.206" fill="#A4A4A4" stroke="#484848" stroke-width="2.8068" stroke-linecap="round" stroke-linejoin="round" width="169.455" height="372.14"/>
			<rect id="rect4274_2_" x="2410.073" y="-2637.988" fill="#E3E3E3" width="205.576" height="85.52"/>
			
				<rect id="rect4276_2_" x="2409.419" y="-2377.738" opacity="0.35" enable-background="new    " width="205.576" height="85.522"/>
			
				<rect id="rect4129_2_" x="2458.637" y="-2651.206" fill="none" stroke="#484848" stroke-width="2.8068" stroke-linecap="round" stroke-linejoin="round" width="169.455" height="372.14"/>
		</g>
		<g id="g3300_2_" transform="matrix(.31048 0 0 .31048 -120.09 906.32)">
			
				<rect id="rect4179_2_" x="721.919" y="-2598.336" fill="#A4A4A4" stroke="#484848" stroke-width="2.8068" stroke-linecap="round" stroke-linejoin="round" width="169.453" height="372.141"/>
			<rect id="rect4270_2_" x="732.325" y="-2586.335" fill="#E3E3E3" width="205.574" height="85.52"/>
			<rect id="rect4272_2_" x="735.606" y="-2323.18" opacity="0.35" enable-background="new    " width="205.576" height="85.52"/>
			
				<rect id="rect3359_2_" x="721.919" y="-2598.336" fill="none" stroke="#484848" stroke-width="2.8068" stroke-linecap="round" stroke-linejoin="round" width="169.453" height="372.141"/>
		</g>
		
			<rect id="rect4166_2_" x="152.69" y="5.54" fill="#A4A4A4" stroke="#484848" stroke-width="2.8068" stroke-linecap="round" stroke-linejoin="round" width="492.819" height="455.624"/>
		
			<path id="rect4187_2_" sodipodi:nodetypes="ccccc" inkscape:connector-curvature="0" opacity="0.3285" enable-background="new    " d="
			M574.05,11.034h66.024V453.5H574.05C593.125,306.013,604.477,158.521,574.05,11.034z"/>
		<path id="path4185_2_" sodipodi:nodetypes="ccccc" inkscape:connector-curvature="0" fill="#E5E5E5" d="M160.782,251.915
			l4.126-224.369l215.608-5.563l-197.04,33.377L160.78,251.917L160.782,251.915z"/>
		<g id="g3305_2_" transform="matrix(.39708 0 0 .39708 -161.66 883.41)">
			
				<path id="path4171_2_" sodipodi:cx="342.69424" sodipodi:cy="256.10944" sodipodi:type="arc" sodipodi:ry="11.616755" sodipodi:rx="10.859139" fill="#FFFFFF" stroke="#484848" stroke-width="2.8657" d="
				M1334.865-1855.548c0,102.21-82.858,185.071-185.068,185.071c-102.211,0-185.068-82.857-185.068-185.071
				c0-102.21,82.858-185.069,185.068-185.069C1252.008-2040.617,1334.865-1957.76,1334.865-1855.548z"/>
			
				<path id="path4175_2_" sodipodi:cx="343.07306" sodipodi:cy="252.06883" sodipodi:type="arc" sodipodi:ry="5.0507627" sodipodi:rx="6.1871843" fill="#292929" d="
				M1236.935-1855.527c0.391,48.067-38.259,87.349-86.327,87.739c-48.067,0.39-87.349-38.259-87.739-86.327
				c-0.005-0.47-0.005-0.941,0-1.412c-0.39-48.067,38.26-87.35,86.327-87.74c48.067-0.39,87.35,38.26,87.739,86.327
				C1236.939-1856.469,1236.939-1855.998,1236.935-1855.527z"/>
		</g>
		<g id="g4150_2_" transform="matrix(.39708 0 0 .39708 -141.5 883.08)">
			
				<path id="path4152_2_" sodipodi:cx="342.69424" sodipodi:cy="256.10944" sodipodi:type="arc" sodipodi:ry="11.616755" sodipodi:rx="10.859139" fill="#FFFFFF" stroke="#484848" stroke-width="2.8657" d="
				M1760.07-1862.507c0,102.21-82.861,185.069-185.069,185.069c-102.211,0-185.067-82.857-185.067-185.069
				c0-102.21,82.858-185.071,185.067-185.071C1677.212-2047.577,1760.07-1964.72,1760.07-1862.507z"/>
			
				<path id="path4154_2_" sodipodi:cx="343.07306" sodipodi:cy="252.06883" sodipodi:type="arc" sodipodi:ry="5.0507627" sodipodi:rx="6.1871843" fill="#292929" d="
				M1662.139-1862.487c0,48.069-38.966,87.037-87.037,87.037c-48.068,0-87.037-38.967-87.037-87.036
				c0-48.069,38.969-87.037,87.037-87.037c48.071,0,87.037,38.967,87.037,87.037V-1862.487z"/>
		</g>
	</g>
</g>
<g id="jaw" inkscape:version="0.48.4 r9939" inkscape:export-ydpi="45" inkscape:export-xdpi="45" sodipodi:docname="Robot Head.svg" xmlns:inkscape="http://www.inkscape.org/namespaces/inkscape" xmlns:rdf="http://www.w3.org/1999/02/22-rdf-syntax-ns#" xmlns:cc="http://creativecommons.org/ns#" xmlns:dc="http://purl.org/dc/elements/1.1/" xmlns:sodipodi="http://sodipodi.sourceforge.net/DTD/sodipodi-0.dtd" xmlns:svg="http://www.w3.org/2000/svg" xmlns:ns1="http://sozi.baierouge.fr" inkscape:export-filename="/home/qubodup/Robot Head.png">
	
		<sodipodi:namedview  inkscape:document-units="px" inkscape:pageopacity="0.0" inkscape:window-width="1481" inkscape:current-layer="layer1" inkscape:window-x="0" inkscape:window-height="1181" inkscape:window-y="0" inkscape:pageshadow="2" inkscape:cy="26.313034" inkscape:cx="0.38954017" borderopacity="1.0" showgrid="false" inkscape:zoom="1" pagecolor="#ffffff" bordercolor="#666666" id="base" inkscape:window-maximized="0">
		</sodipodi:namedview>
	<g>
		<rect x="99.5" y="0" fill="none" width="600" height="600"/>
		<g id="g3285_3_" transform="matrix(.31048 0 0 .72239 -120.09 783.39)">
			
				<path id="rect4168_3_" sodipodi:nodetypes="ccccccccc" inkscape:connector-curvature="0" fill="#A4A4A4" stroke="#484848" stroke-width="2.8068" stroke-linecap="round" stroke-linejoin="round" d="
				M808.731-706.898h217.125l203.278,215.596h868.49l230.962-215.596h217.125v444.459h-1737v-444.459H808.731z"/>
			
				<path id="rect4189_3_" sodipodi:nodetypes="cccccc" inkscape:connector-curvature="0" opacity="0.3285" enable-background="new    " d="
				M2525.761-698.085l-0.075,427.124h-318.974l5.432-307.546l128.606-119.747L2525.761-698.085z"/>
			<path id="path4192_3_" sodipodi:nodetypes="cccccc" inkscape:connector-curvature="0" fill="#E5E5E5" d="M835.168-604.711
				l1.261,318.685l580.65,0.522l-528.103-49.998l-53.807-269.211v-0.001L835.168-604.711z"/>
		</g>
	</g>
</g>
</svg>
